<svg width="97" height="97" viewBox="0 0 97 97" xmlns="http://www.w3.org/2000/svg">
  <g id="Page-1" fill="none" fill-rule="evenodd">
    <g id="Home-Rev3--Desktop-HD" transform="translate(-792 -4993)">
      <g id="Customer-Spotlight" transform="translate(0 4422)">
        <g id="active-card" transform="translate(300 319)">
          <g transform="translate(492 252)" id="button-play-large">
            <circle id="Oval" fill-opacity=".9" fill="#FFFFFF" cx="48.11" cy="48.11" r="48.11"/>
            <path d="M61.32 46.06c.54.3.9.72 1.08 1.25a2.4 2.4 0 0 1 0 1.6c-.18.54-.54.96-1.08 1.26L43.7 60.6c-.5.3-1.03.4-1.6.3a2.41 2.41 0 0 1-1.43-.8 2.27 2.27 0 0 1-.57-1.56V37.7c0-.67.2-1.22.6-1.63.4-.42.88-.67 1.45-.75.57-.09 1.09.02 1.55.32l17.63 10.43z" id="play" fill="#333333"/>
          </g>
        </g>
      </g>
    </g>
  </g>
</svg>
